<mxfile host="app.diagrams.net" agent="Mozilla/5.0 (Macintosh; Intel Mac OS X 10_15_7) AppleWebKit/537.36 (KHTML, like Gecko) Chrome/138.0.0.0 Safari/537.36" version="28.0.6">
  <diagram name="Page-1" id="rhy4IqxatgTpVK_fP_lf">
    <mxGraphModel dx="1220" dy="788" grid="1" gridSize="10" guides="1" tooltips="1" connect="1" arrows="1" fold="1" page="1" pageScale="1" pageWidth="827" pageHeight="1169" math="0" shadow="0">
      <root>
        <mxCell id="0" />
        <mxCell id="1" parent="0" />
        <mxCell id="-U0_snmX_J2C08Po6Xb1-84" value="VPC" style="sketch=0;outlineConnect=0;html=1;whiteSpace=wrap;fontSize=12;fontStyle=0;shape=mxgraph.aws4.group;grIcon=mxgraph.aws4.group_vpc;fillColor=none;verticalAlign=top;align=left;spacingLeft=30;dashed=0;" vertex="1" parent="1">
          <mxGeometry x="260" y="470" width="480" height="250" as="geometry" />
        </mxCell>
        <mxCell id="-U0_snmX_J2C08Po6Xb1-51" value="" style="edgeStyle=orthogonalEdgeStyle;rounded=0;orthogonalLoop=1;jettySize=auto;html=1;" edge="1" parent="1" source="-U0_snmX_J2C08Po6Xb1-30" target="-U0_snmX_J2C08Po6Xb1-32">
          <mxGeometry relative="1" as="geometry" />
        </mxCell>
        <mxCell id="-U0_snmX_J2C08Po6Xb1-30" value="" style="outlineConnect=0;dashed=0;verticalLabelPosition=bottom;verticalAlign=top;align=center;html=1;shape=mxgraph.aws3.cloudfront;fillColor=#F58536;gradientColor=none;" vertex="1" parent="1">
          <mxGeometry x="151.75" y="569.3" width="76.5" height="93" as="geometry" />
        </mxCell>
        <mxCell id="-U0_snmX_J2C08Po6Xb1-52" value="" style="edgeStyle=orthogonalEdgeStyle;rounded=0;orthogonalLoop=1;jettySize=auto;html=1;" edge="1" parent="1" source="-U0_snmX_J2C08Po6Xb1-32" target="-U0_snmX_J2C08Po6Xb1-33">
          <mxGeometry relative="1" as="geometry" />
        </mxCell>
        <mxCell id="-U0_snmX_J2C08Po6Xb1-32" value="" style="points=[];aspect=fixed;html=1;align=center;shadow=0;dashed=0;fillColor=#FF6A00;strokeColor=none;shape=mxgraph.alibaba_cloud.eci_elastic_container_instance;" vertex="1" parent="1">
          <mxGeometry x="261.75" y="576.6" width="112.09" height="78.4" as="geometry" />
        </mxCell>
        <mxCell id="-U0_snmX_J2C08Po6Xb1-54" value="" style="edgeStyle=orthogonalEdgeStyle;rounded=0;orthogonalLoop=1;jettySize=auto;html=1;entryX=0;entryY=0.5;entryDx=0;entryDy=0;entryPerimeter=0;" edge="1" parent="1" source="-U0_snmX_J2C08Po6Xb1-33" target="-U0_snmX_J2C08Po6Xb1-34">
          <mxGeometry relative="1" as="geometry">
            <mxPoint x="449.9166666666665" y="472.79999999999995" as="targetPoint" />
          </mxGeometry>
        </mxCell>
        <mxCell id="-U0_snmX_J2C08Po6Xb1-56" value="" style="edgeStyle=orthogonalEdgeStyle;rounded=0;orthogonalLoop=1;jettySize=auto;html=1;entryX=0;entryY=0.5;entryDx=0;entryDy=0;entryPerimeter=0;" edge="1" parent="1" source="-U0_snmX_J2C08Po6Xb1-33" target="-U0_snmX_J2C08Po6Xb1-42">
          <mxGeometry relative="1" as="geometry">
            <mxPoint x="449.9999999999998" y="788.8" as="targetPoint" />
          </mxGeometry>
        </mxCell>
        <mxCell id="-U0_snmX_J2C08Po6Xb1-33" value="" style="outlineConnect=0;dashed=0;verticalLabelPosition=bottom;verticalAlign=top;align=center;html=1;shape=mxgraph.aws3.ec2;fillColor=#F58534;gradientColor=none;" vertex="1" parent="1">
          <mxGeometry x="411.75" y="569.3" width="76.5" height="93" as="geometry" />
        </mxCell>
        <mxCell id="-U0_snmX_J2C08Po6Xb1-59" style="edgeStyle=orthogonalEdgeStyle;rounded=0;orthogonalLoop=1;jettySize=auto;html=1;" edge="1" parent="1" source="-U0_snmX_J2C08Po6Xb1-34" target="-U0_snmX_J2C08Po6Xb1-46">
          <mxGeometry relative="1" as="geometry">
            <Array as="points">
              <mxPoint x="685" y="570" />
            </Array>
          </mxGeometry>
        </mxCell>
        <mxCell id="-U0_snmX_J2C08Po6Xb1-34" value="" style="outlineConnect=0;dashed=0;verticalLabelPosition=bottom;verticalAlign=top;align=center;html=1;shape=mxgraph.aws3.ecr;fillColor=#F58534;gradientColor=none;" vertex="1" parent="1">
          <mxGeometry x="532.75" y="526.0000000000001" width="69" height="72" as="geometry" />
        </mxCell>
        <mxCell id="-U0_snmX_J2C08Po6Xb1-71" style="edgeStyle=orthogonalEdgeStyle;rounded=0;orthogonalLoop=1;jettySize=auto;html=1;" edge="1" parent="1" source="-U0_snmX_J2C08Po6Xb1-36" target="-U0_snmX_J2C08Po6Xb1-50">
          <mxGeometry relative="1" as="geometry">
            <Array as="points">
              <mxPoint x="710" y="521" />
              <mxPoint x="740" y="521" />
              <mxPoint x="740" y="800" />
            </Array>
          </mxGeometry>
        </mxCell>
        <mxCell id="-U0_snmX_J2C08Po6Xb1-36" value="" style="outlineConnect=0;dashed=0;verticalLabelPosition=bottom;verticalAlign=top;align=center;html=1;shape=mxgraph.aws3.instance_with_cloudwatch;fillColor=#F58534;gradientColor=none;" vertex="1" parent="1">
          <mxGeometry x="661.75" y="500" width="40.48" height="42.5" as="geometry" />
        </mxCell>
        <mxCell id="-U0_snmX_J2C08Po6Xb1-70" style="edgeStyle=orthogonalEdgeStyle;rounded=0;orthogonalLoop=1;jettySize=auto;html=1;" edge="1" parent="1" source="-U0_snmX_J2C08Po6Xb1-39" target="-U0_snmX_J2C08Po6Xb1-50">
          <mxGeometry relative="1" as="geometry">
            <Array as="points">
              <mxPoint x="190" y="720" />
              <mxPoint x="318" y="720" />
            </Array>
          </mxGeometry>
        </mxCell>
        <mxCell id="-U0_snmX_J2C08Po6Xb1-39" value="Cloudfront" style="text;html=1;align=center;verticalAlign=middle;resizable=0;points=[];autosize=1;strokeColor=none;fillColor=none;" vertex="1" parent="1">
          <mxGeometry x="150" y="662.3" width="80" height="30" as="geometry" />
        </mxCell>
        <mxCell id="-U0_snmX_J2C08Po6Xb1-64" value="" style="edgeStyle=orthogonalEdgeStyle;rounded=0;orthogonalLoop=1;jettySize=auto;html=1;" edge="1" parent="1" source="-U0_snmX_J2C08Po6Xb1-40" target="-U0_snmX_J2C08Po6Xb1-50">
          <mxGeometry relative="1" as="geometry" />
        </mxCell>
        <mxCell id="-U0_snmX_J2C08Po6Xb1-40" value="Ec2" style="text;html=1;align=center;verticalAlign=middle;resizable=0;points=[];autosize=1;strokeColor=none;fillColor=none;" vertex="1" parent="1">
          <mxGeometry x="297.8" y="662.3" width="40" height="30" as="geometry" />
        </mxCell>
        <mxCell id="-U0_snmX_J2C08Po6Xb1-41" value="ECR" style="text;html=1;align=center;verticalAlign=middle;resizable=0;points=[];autosize=1;strokeColor=none;fillColor=none;" vertex="1" parent="1">
          <mxGeometry x="425" y="662.3" width="50" height="30" as="geometry" />
        </mxCell>
        <mxCell id="-U0_snmX_J2C08Po6Xb1-42" value="" style="outlineConnect=0;dashed=0;verticalLabelPosition=bottom;verticalAlign=top;align=center;html=1;shape=mxgraph.aws3.ecr;fillColor=#F58534;gradientColor=none;" vertex="1" parent="1">
          <mxGeometry x="531.75" y="641.3" width="69" height="72" as="geometry" />
        </mxCell>
        <mxCell id="-U0_snmX_J2C08Po6Xb1-43" value="Frontend" style="text;html=1;align=center;verticalAlign=middle;resizable=0;points=[];autosize=1;strokeColor=none;fillColor=none;" vertex="1" parent="1">
          <mxGeometry x="530.75" y="611.3" width="70" height="30" as="geometry" />
        </mxCell>
        <mxCell id="-U0_snmX_J2C08Po6Xb1-44" value="Backend" style="text;html=1;align=center;verticalAlign=middle;resizable=0;points=[];autosize=1;strokeColor=none;fillColor=none;" vertex="1" parent="1">
          <mxGeometry x="531.75" y="496" width="70" height="30" as="geometry" />
        </mxCell>
        <mxCell id="-U0_snmX_J2C08Po6Xb1-45" value="DynamoDb" style="text;html=1;align=center;verticalAlign=middle;resizable=0;points=[];autosize=1;strokeColor=none;fillColor=none;" vertex="1" parent="1">
          <mxGeometry x="641.99" y="542.5" width="80" height="30" as="geometry" />
        </mxCell>
        <mxCell id="-U0_snmX_J2C08Po6Xb1-46" value="" style="image;aspect=fixed;perimeter=ellipsePerimeter;html=1;align=center;shadow=0;dashed=0;spacingTop=3;image=img/lib/active_directory/security.svg;" vertex="1" parent="1">
          <mxGeometry x="669.24" y="729" width="31.5" height="50" as="geometry" />
        </mxCell>
        <mxCell id="-U0_snmX_J2C08Po6Xb1-49" value="SecretManager" style="text;html=1;align=center;verticalAlign=middle;resizable=0;points=[];autosize=1;strokeColor=none;fillColor=none;" vertex="1" parent="1">
          <mxGeometry x="630" y="770" width="110" height="30" as="geometry" />
        </mxCell>
        <mxCell id="-U0_snmX_J2C08Po6Xb1-73" value="" style="edgeStyle=orthogonalEdgeStyle;rounded=0;orthogonalLoop=1;jettySize=auto;html=1;" edge="1" parent="1" source="-U0_snmX_J2C08Po6Xb1-50" target="-U0_snmX_J2C08Po6Xb1-72">
          <mxGeometry relative="1" as="geometry" />
        </mxCell>
        <mxCell id="-U0_snmX_J2C08Po6Xb1-50" value="Amazon CloudWatch" style="sketch=0;outlineConnect=0;fontColor=#232F3E;gradientColor=none;strokeColor=#ffffff;fillColor=#232F3E;dashed=0;verticalLabelPosition=middle;verticalAlign=bottom;align=center;html=1;whiteSpace=wrap;fontSize=10;fontStyle=1;spacing=3;shape=mxgraph.aws4.productIcon;prIcon=mxgraph.aws4.cloudwatch;" vertex="1" parent="1">
          <mxGeometry x="275.29" y="740" width="85" height="120" as="geometry" />
        </mxCell>
        <mxCell id="-U0_snmX_J2C08Po6Xb1-60" style="edgeStyle=orthogonalEdgeStyle;rounded=0;orthogonalLoop=1;jettySize=auto;html=1;entryX=0;entryY=0.5;entryDx=0;entryDy=0;entryPerimeter=0;" edge="1" parent="1" source="-U0_snmX_J2C08Po6Xb1-34" target="-U0_snmX_J2C08Po6Xb1-36">
          <mxGeometry relative="1" as="geometry" />
        </mxCell>
        <mxCell id="-U0_snmX_J2C08Po6Xb1-72" value="" style="outlineConnect=0;dashed=0;verticalLabelPosition=bottom;verticalAlign=top;align=center;html=1;shape=mxgraph.aws3.s3;fillColor=#fa6800;fontColor=#000000;strokeColor=#C73500;" vertex="1" parent="1">
          <mxGeometry x="279.53999999999996" y="890" width="76.5" height="93" as="geometry" />
        </mxCell>
        <mxCell id="-U0_snmX_J2C08Po6Xb1-74" value="S3" style="text;html=1;align=center;verticalAlign=middle;resizable=0;points=[];autosize=1;strokeColor=none;fillColor=none;" vertex="1" parent="1">
          <mxGeometry x="297.78999999999996" y="990" width="40" height="30" as="geometry" />
        </mxCell>
        <mxCell id="-U0_snmX_J2C08Po6Xb1-80" style="edgeStyle=orthogonalEdgeStyle;rounded=0;orthogonalLoop=1;jettySize=auto;html=1;" edge="1" parent="1" source="-U0_snmX_J2C08Po6Xb1-78" target="-U0_snmX_J2C08Po6Xb1-72">
          <mxGeometry relative="1" as="geometry" />
        </mxCell>
        <mxCell id="-U0_snmX_J2C08Po6Xb1-87" style="edgeStyle=orthogonalEdgeStyle;rounded=0;orthogonalLoop=1;jettySize=auto;html=1;" edge="1" parent="1" source="-U0_snmX_J2C08Po6Xb1-78" target="-U0_snmX_J2C08Po6Xb1-86">
          <mxGeometry relative="1" as="geometry" />
        </mxCell>
        <mxCell id="-U0_snmX_J2C08Po6Xb1-78" value="" style="dashed=0;outlineConnect=0;html=1;align=center;labelPosition=center;verticalLabelPosition=bottom;verticalAlign=top;shape=mxgraph.weblogos.github;fillColor=#fa6800;fontColor=#000000;strokeColor=#C73500;" vertex="1" parent="1">
          <mxGeometry x="84.25" y="899" width="75" height="75" as="geometry" />
        </mxCell>
        <mxCell id="-U0_snmX_J2C08Po6Xb1-79" value="GitHub" style="text;html=1;align=center;verticalAlign=middle;resizable=0;points=[];autosize=1;strokeColor=none;fillColor=none;" vertex="1" parent="1">
          <mxGeometry x="91.75" y="974" width="60" height="30" as="geometry" />
        </mxCell>
        <mxCell id="-U0_snmX_J2C08Po6Xb1-81" value="Terraform&lt;div&gt;Backend&lt;/div&gt;" style="text;html=1;align=center;verticalAlign=middle;resizable=0;points=[];autosize=1;strokeColor=none;fillColor=none;" vertex="1" parent="1">
          <mxGeometry x="180" y="890" width="70" height="40" as="geometry" />
        </mxCell>
        <mxCell id="-U0_snmX_J2C08Po6Xb1-83" value="Deploy image ecr" style="text;html=1;align=center;verticalAlign=middle;resizable=0;points=[];autosize=1;strokeColor=none;fillColor=none;" vertex="1" parent="1">
          <mxGeometry x="10" y="710" width="120" height="30" as="geometry" />
        </mxCell>
        <mxCell id="-U0_snmX_J2C08Po6Xb1-88" style="edgeStyle=orthogonalEdgeStyle;rounded=0;orthogonalLoop=1;jettySize=auto;html=1;" edge="1" parent="1" source="-U0_snmX_J2C08Po6Xb1-85" target="-U0_snmX_J2C08Po6Xb1-33">
          <mxGeometry relative="1" as="geometry">
            <Array as="points">
              <mxPoint x="450" y="460" />
            </Array>
          </mxGeometry>
        </mxCell>
        <mxCell id="-U0_snmX_J2C08Po6Xb1-89" style="edgeStyle=orthogonalEdgeStyle;rounded=0;orthogonalLoop=1;jettySize=auto;html=1;entryX=1;entryY=0.5;entryDx=0;entryDy=0;" edge="1" parent="1" source="-U0_snmX_J2C08Po6Xb1-85" target="-U0_snmX_J2C08Po6Xb1-46">
          <mxGeometry relative="1" as="geometry">
            <Array as="points">
              <mxPoint x="126" y="430" />
              <mxPoint x="770" y="430" />
              <mxPoint x="770" y="754" />
            </Array>
          </mxGeometry>
        </mxCell>
        <mxCell id="-U0_snmX_J2C08Po6Xb1-85" value="" style="sketch=0;outlineConnect=0;fontColor=#000000;fillColor=#fa6800;strokeColor=#C73500;dashed=0;verticalLabelPosition=bottom;verticalAlign=top;align=center;html=1;fontSize=12;fontStyle=0;aspect=fixed;pointerEvents=1;shape=mxgraph.aws4.systems_manager_session_manager;" vertex="1" parent="1">
          <mxGeometry x="86.75" y="448" width="78" height="78" as="geometry" />
        </mxCell>
        <mxCell id="-U0_snmX_J2C08Po6Xb1-86" value="Session&lt;div&gt;manager&lt;/div&gt;" style="text;html=1;align=center;verticalAlign=middle;resizable=0;points=[];autosize=1;strokeColor=none;fillColor=none;" vertex="1" parent="1">
          <mxGeometry x="86.75" y="532.5" width="70" height="40" as="geometry" />
        </mxCell>
        <mxCell id="-U0_snmX_J2C08Po6Xb1-91" style="edgeStyle=orthogonalEdgeStyle;rounded=0;orthogonalLoop=1;jettySize=auto;html=1;" edge="1" parent="1" source="-U0_snmX_J2C08Po6Xb1-90">
          <mxGeometry relative="1" as="geometry">
            <mxPoint x="437" y="430" as="targetPoint" />
          </mxGeometry>
        </mxCell>
        <mxCell id="-U0_snmX_J2C08Po6Xb1-94" style="edgeStyle=orthogonalEdgeStyle;rounded=0;orthogonalLoop=1;jettySize=auto;html=1;" edge="1" parent="1" source="-U0_snmX_J2C08Po6Xb1-90">
          <mxGeometry relative="1" as="geometry">
            <mxPoint x="310" y="460" as="targetPoint" />
          </mxGeometry>
        </mxCell>
        <mxCell id="-U0_snmX_J2C08Po6Xb1-95" style="edgeStyle=orthogonalEdgeStyle;rounded=0;orthogonalLoop=1;jettySize=auto;html=1;" edge="1" parent="1" source="-U0_snmX_J2C08Po6Xb1-90">
          <mxGeometry relative="1" as="geometry">
            <mxPoint x="210" y="940" as="targetPoint" />
            <Array as="points">
              <mxPoint x="800" y="385" />
              <mxPoint x="800" y="1020" />
              <mxPoint x="210" y="1020" />
              <mxPoint x="210" y="951" />
            </Array>
          </mxGeometry>
        </mxCell>
        <mxCell id="-U0_snmX_J2C08Po6Xb1-90" value="Cloud&#xa;IAM" style="sketch=0;html=1;verticalAlign=top;labelPosition=center;verticalLabelPosition=bottom;align=center;spacingTop=-6;fontSize=11;fontStyle=1;fontColor=#999999;shape=image;aspect=fixed;imageAspect=0;image=data:image/svg+xml,PHN2ZyB4bWxucz0iaHR0cDovL3d3dy53My5vcmcvMjAwMC9zdmciIHhtbG5zOnY9Imh0dHBzOi8vdmVjdGEuaW8vbmFubyIgd2lkdGg9IjE2LjQyMDAwMDA3NjI5Mzk0NSIgaGVpZ2h0PSIyMC4wNDk5OTkyMzcwNjA1NDciIGZpbGwtcnVsZT0iZXZlbm9kZCIgdmlld0JveD0iMCAwIDE2LjQyMDAwMDA3NjI5Mzk0NSAyMC4wNDk5OTkyMzcwNjA1NDciPiYjeGE7CTxzdHlsZSB0eXBlPSJ0ZXh0L2NzcyI+JiN4YTsJLnN0MHtmaWxsOiM0Mjg1ZjQ7fSYjeGE7CS5zdDF7ZmlsbDojNjY5ZGY2O30mI3hhOwk8L3N0eWxlPiYjeGE7CTxwYXRoIGNsYXNzPSJzdDEiIGQ9Ik04LjIxIDBMMCAzLjQydjUuNjNjMCA1LjA2IDMuNSA5LjggOC4yMSAxMSA0LjcxLTEuMTUgOC4yMS01Ljg5IDguMjEtMTAuOTVWMy40MnptMCAzLjc5YTIuNjMgMi42MyAwIDAgMSAxLjAwNSA1LjA2QTIuNjMgMi42MyAwIDAgMSA2LjM1IDQuNTZhMi42MyAyLjYzIDAgMCAxIDEuODYtLjc3em00LjExIDExLjE1YTguNjQgOC42NCAwIDAgMS00LjExIDIuOTMgOC42NCA4LjY0IDAgMCAxLTQuMTEtMi45M3YtMi4yNWMwLTEuNjcgMi43NC0yLjUyIDQuMTEtMi41MnM0LjExLjg1IDQuMTEgMi41MnoiLz4mI3hhOwk8cGF0aCBjbGFzcz0ic3QwIiBkPSJNOC4yMSAwdjMuNzlhMi42MyAyLjYzIDAgMSAxIDAgNS4yNnYxLjEyYzEuMzcgMCA0LjExLjg1IDQuMTEgMi41MnYyLjI1YTguNjQgOC42NCAwIDAgMS00LjExIDIuOTNWMjBjNC43MS0xLjE1IDguMjEtNS44OSA4LjIxLTEwLjk1VjMuNDJ6Ii8+JiN4YTs8L3N2Zz4=;" vertex="1" parent="1">
          <mxGeometry x="370" y="370" width="24.29" height="30" as="geometry" />
        </mxCell>
      </root>
    </mxGraphModel>
  </diagram>
</mxfile>
